<svg xmlns="http://www.w3.org/2000/svg" width="75" height="22" viewBox="0 0 75 22" fill="none">
  <g clip-path="url(#clip0_123_456)">
    <path d="M0.0144632 0H11.6426C11.6426 0.26342 11.7835 0.572978 11.5166 0.891447C10.6871 1.92022 9.93673 2.99082 9.15144 4.03946C8.57248 4.80064 8.02843 5.57697 7.42457 6.3667C7.73633 6.3667 7.9057 6.3667 8.07505 6.3667C9.69666 6.3667 11.3183 6.3667 12.9399 6.3667C13.7252 6.3667 14.0808 6.71827 14.0808 7.46431C14.0808 10.8927 14.0808 14.3163 14.0808 17.7446C14.0808 18.491 13.773 18.8619 13.0345 18.8619C8.92552 18.8619 4.81653 18.8619 0.707536 18.8619C0.563363 18.8619 0.421791 18.8329 0.254146 18.8136C0.0289273 15.3853 0.0144632 0 0.0144632 0Z" fill="white"/>
    <path d="M74.9999 4.43529V18.7749C71.521 18.7749 68.0709 18.7749 64.5775 18.7749C64.5775 14.1713 64.5775 9.58416 64.5775 4.96175C64.5775 4.96175 64.6642 4.94208 64.7799 4.94208C67.2229 4.94208 69.6659 4.87263 72.109 4.96175C73.0681 5.00162 74.0272 5.4558 74.9999 5.92515V4.43529Z" fill="white"/>
    <path d="M20.4064 11.1086C20.4064 13.6773 20.3631 16.2412 20.4304 18.8052C20.4353 19.1715 20.2802 19.3296 19.9155 19.3196C18.5672 19.2798 17.2188 19.2798 15.8704 19.3196C15.5346 19.3296 15.3795 19.2018 15.3795 18.8571C15.3939 13.7223 15.3939 8.58745 15.3795 3.45261C15.3795 3.07881 15.5346 2.97407 15.8896 2.98393C17.2572 3.02379 18.6248 3.02379 19.9924 2.98393C20.3281 2.97407 20.4399 3.10868 20.4304 3.42304C20.3871 5.98688 20.4064 8.55072 20.4064 11.1086Z" fill="white"/>
    <path d="M38.0322 0.0098691C38.0322 6.2717 38.0322 12.5335 38.0322 18.8052C34.5148 18.8052 31.0358 18.8052 27.5569 18.8052C27.5569 17.3745 27.5569 15.9438 27.5569 14.4443C27.7025 14.4246 27.8527 14.3847 28.0029 14.3847C29.7264 14.3748 31.45 14.3748 33.1735 14.3847C33.5092 14.3847 33.6594 14.2701 33.6594 13.9331C33.6498 11.6288 33.6498 9.32463 33.6498 7.02044C33.6498 6.70702 33.5236 6.58214 33.2038 6.58214C31.4659 6.59201 29.7313 6.59201 27.9934 6.58214C27.674 6.58214 27.5329 6.69674 27.5425 7.02044C27.5617 8.19301 27.5521 9.36558 27.5521 10.5381C27.5521 10.6626 27.5521 10.7871 27.5521 10.9412C26.4352 10.9412 25.3569 10.9412 24.2592 10.9412C24.2592 7.29372 24.2592 3.65608 24.2592 0.0098691C28.8196 0.0098691 33.4283 0.0098691 38.0322 0.0098691Z" fill="#FFE500"/>
    <path d="M57.5187 10.9411C56.4258 10.9411 55.3378 10.9411 54.2498 10.9411C54.2402 8.96977 54.2402 7.0082 54.2498 5.03675C54.2498 4.7332 54.1184 4.60832 53.7971 4.61818C52.0688 4.62805 50.3405 4.62805 48.6122 4.61818C48.2765 4.61818 48.145 4.75292 48.1546 5.06648C48.1738 7.01821 48.1642 8.96977 48.1642 10.9312C48.1642 10.9411 48.1546 10.9411 48.145 10.9509C47.0281 10.9509 45.9112 10.9509 44.7847 10.9509C44.7847 7.30358 44.7847 3.65608 44.7847 0.0098688C49.339 0.0098688 53.9221 0.0098688 58.5053 0.0098688C58.5053 3.7114 58.5053 7.39847 58.5053 10.9411C58.1791 10.9411 57.8626 10.9411 57.5187 10.9411Z" fill="#FFE500"/>
    <path d="M64.5776 0C64.5776 1.4406 64.5776 2.86134 64.5776 4.30194C59.9848 4.30194 55.4209 4.30194 50.8473 4.30194C50.8473 2.86134 50.8473 1.4406 50.8473 0C55.4498 0 59.9944 0 64.5776 0Z" fill="#FFE500"/>
    <path d="M55.9364 19.3196C55.9364 16.0044 55.9364 12.6893 55.9364 9.37438C58.3794 9.37438 60.8224 9.37438 63.2654 9.37438C63.2654 12.6893 63.2654 16.0142 63.2654 19.3196C60.8224 19.3196 58.3892 19.3196 55.9364 19.3196Z" fill="#2874F0"/>
    <path d="M45.3829 19.3196C45.3829 16.0044 45.3829 12.6893 45.3829 9.37438C45.6931 9.37438 46.0144 9.37438 46.345 9.37438C47.9377 9.37438 49.5303 9.37438 51.123 9.35465C51.4155 9.35465 51.5464 9.47953 51.5368 9.7731C51.5175 12.9179 51.5175 16.0726 51.5368 19.2174C51.5368 19.511 51.4155 19.3295 51.123 19.3295C49.2415 19.3295 47.3552 19.3295 45.4737 19.3295C45.4351 19.3295 45.3972 19.3196 45.3829 19.3196Z" fill="#2874F0"/>
    <path d="M27.5523 19.319C27.5523 16.0439 27.5523 12.7688 27.5523 9.48901C30.0049 9.48901 32.4575 9.48901 34.9245 9.48901C34.9245 12.7589 34.9245 16.0439 34.9245 19.319C32.4623 19.319 30.0049 19.319 27.5523 19.319Z" fill="#2874F0"/>
    <path d="M35.9994 7.02045C35.9994 4.97383 35.9994 2.96213 35.9994 0.940638C39.4497 0.940638 42.9096 0.940638 46.3694 0.940638C46.3694 2.9523 46.3694 4.954 46.3694 6.9655C43.3084 6.9655 40.2379 6.9655 37.1673 6.9655C36.8124 7.01522 36.4623 7.02045 35.9994 7.02045Z" fill="#2874F0"/>
  </g>
  <defs>
    <clipPath id="clip0_123_456">
      <rect width="75" height="22" fill="white"/>
    </clipPath>
  </defs>
</svg> 